<?xml version="1.0" encoding="UTF-8"?>
<svg width="76px" height="94px" viewBox="0 0 76 94" version="1.1" xmlns="http://www.w3.org/2000/svg" xmlns:xlink="http://www.w3.org/1999/xlink">
    <title>vip_type3</title>
    <defs>
        <linearGradient x1="75.549%" y1="14.657%" x2="20.867%" y2="84.495%" id="linearGradient-1">
            <stop stop-color="#FFBC4B" offset="0%"></stop>
            <stop stop-color="#EECB9B" offset="52.616%"></stop>
            <stop stop-color="#E79931" offset="100%"></stop>
        </linearGradient>
        <path d="M21.5089057,0.0407332837 L42.5617553,12.1956017 C42.6558248,12.2499127 42.713774,12.3502836 42.713774,12.4589057 L42.713774,36.7686425 C42.713774,36.8772646 42.6558248,36.9776356 42.5617553,37.0319466 L21.5089057,49.186815 C21.4148362,49.241126 21.2989378,49.241126 21.2048683,49.186815 L0.15201869,37.0319466 C0.0579492,36.9776356 1.77635684e-15,36.8772646 1.77635684e-15,36.7686425 L1.77635684e-15,12.4589057 C1.77635684e-15,12.3502836 0.0579492,12.2499127 0.15201869,12.1956017 L21.2048683,0.0407332837 C21.2989378,-0.0135777613 21.4148362,-0.0135777613 21.5089057,0.0407332837 Z" id="path-2"></path>
        <linearGradient x1="77.997%" y1="16.693%" x2="23.856%" y2="85.32%" id="linearGradient-4">
            <stop stop-color="#FFDB7A" offset="0%"></stop>
            <stop stop-color="#FFEBA8" offset="46.038%"></stop>
            <stop stop-color="#F2C241" offset="100%"></stop>
        </linearGradient>
    </defs>
    <g id="页面-1" stroke="none" stroke-width="1" fill="none" fill-rule="evenodd">
        <g id="vip_type3" transform="translate(0.000000, 0.623739)">
            <g id="编组" transform="translate(37.951631, 46.563004) scale(-1, 1) rotate(-13.000000) translate(-37.951631, -46.563004) translate(8.462633, 5.583273)" fill-rule="nonzero">
                <g id="b-link" fill="#000000">
                    <path d="M16.5457308,-8.8817842e-16 L58.977997,9.79626048 L42.4530051,81.3700168 C42.3585404,81.7791665 41.9502802,82.034269 41.5411306,81.9398043 C41.4708988,81.9235892 41.4033297,81.8974696 41.3404521,81.8622298 L22.7699786,71.4544132 L22.7699786,71.4544132 L0.79692443,72.5134999 C0.37749821,72.533716 0.0210977203,72.2100922 0.00088165027,71.790666 C-0.00247972973,71.720927 0.00378088027,71.6510573 0.0194869603,71.5830268 L16.5457308,-8.8817842e-16 L16.5457308,-8.8817842e-16 Z" id="b"></path>
                </g>
                <g id="b-link" fill="#CC750A">
                    <path d="M16.5457308,-8.8817842e-16 L58.977997,9.79626048 L42.4530051,81.3700168 C42.3585404,81.7791665 41.9502802,82.034269 41.5411306,81.9398043 C41.4708988,81.9235892 41.4033297,81.8974696 41.3404521,81.8622298 L22.7699786,71.4544132 L22.7699786,71.4544132 L0.79692443,72.5134999 C0.37749821,72.533716 0.0210977203,72.2100922 0.00088165027,71.790666 C-0.00247972973,71.720927 0.00378088027,71.6510573 0.0194869603,71.5830268 L16.5457308,-8.8817842e-16 L16.5457308,-8.8817842e-16 Z" id="b"></path>
                </g>
                <g id="b-link" fill="#CC750A">
                    <path d="M16.5457308,-8.8817842e-16 L58.977997,9.79626048 L42.4530051,81.3700168 C42.3585404,81.7791665 41.9502802,82.034269 41.5411306,81.9398043 C41.4708988,81.9235892 41.4033297,81.8974696 41.3404521,81.8622298 L22.7699786,71.4544132 L22.7699786,71.4544132 L0.79692443,72.5134999 C0.37749821,72.533716 0.0210977203,72.2100922 0.00088165027,71.790666 C-0.00247972973,71.720927 0.00378088027,71.6510573 0.0194869603,71.5830268 L16.5457308,-8.8817842e-16 L16.5457308,-8.8817842e-16 Z" id="b"></path>
                </g>
            </g>
            <g id="编组" transform="translate(11.320834, 14.100606)" fill-rule="nonzero">
                <g id="c-link" fill="#E79931">
                    <path d="M27.090502,0.203666419 L51.9007238,14.5278546 C52.3710712,14.7994099 52.6608172,15.3012646 52.6608172,15.8443751 L52.6608172,44.4927515 C52.6608172,45.0358619 52.3710712,45.5377167 51.9007238,45.8092719 L27.090502,60.1334601 C26.6201546,60.4050154 26.0406626,60.4050154 25.5703152,60.1334601 L0.76009342,45.8092719 C0.28974597,45.5377167 0,45.0358619 0,44.4927515 L0,15.8443751 C0,15.3012646 0.28974597,14.7994099 0.76009342,14.5278546 L25.5703152,0.203666419 C26.0406626,-0.0678888063 26.6201546,-0.0678888063 27.090502,0.203666419 Z" id="c"></path>
                </g>
                <g id="c-link" fill="url(#linearGradient-1)">
                    <path d="M27.090502,0.203666419 L51.9007238,14.5278546 C52.3710712,14.7994099 52.6608172,15.3012646 52.6608172,15.8443751 L52.6608172,44.4927515 C52.6608172,45.0358619 52.3710712,45.5377167 51.9007238,45.8092719 L27.090502,60.1334601 C26.6201546,60.4050154 26.0406626,60.4050154 25.5703152,60.1334601 L0.76009342,45.8092719 C0.28974597,45.5377167 0,45.0358619 0,44.4927515 L0,15.8443751 C0,15.3012646 0.28974597,14.7994099 0.76009342,14.5278546 L25.5703152,0.203666419 C26.0406626,-0.0678888063 26.6201546,-0.0678888063 27.090502,0.203666419 Z" id="c"></path>
                </g>
            </g>
            <g id="编组" transform="translate(16.294330, 19.654697)">
                <g id="e-link" fill="#CD6A05" fill-rule="nonzero">
                    <path d="M21.5089057,0.0407332837 L42.5617553,12.1956017 C42.6558248,12.2499127 42.713774,12.3502836 42.713774,12.4589057 L42.713774,36.7686425 C42.713774,36.8772646 42.6558248,36.9776356 42.5617553,37.0319466 L21.5089057,49.186815 C21.4148362,49.241126 21.2989378,49.241126 21.2048683,49.186815 L0.15201869,37.0319466 C0.0579492,36.9776356 1.77635684e-15,36.8772646 1.77635684e-15,36.7686425 L1.77635684e-15,12.4589057 C1.77635684e-15,12.3502836 0.0579492,12.2499127 0.15201869,12.1956017 L21.2048683,0.0407332837 C21.2989378,-0.0135777613 21.4148362,-0.0135777613 21.5089057,0.0407332837 Z" id="e"></path>
                </g>
                <g id="Clipped">
                    <mask id="mask-3" fill="white">
                        <use xlink:href="#path-2"></use>
                    </mask>
                    <g id="e"></g>
                    <polygon id="路径" fill="#F5F6F7" fill-rule="nonzero" opacity="0.047" mask="url(#mask-3)" points="-4.99301841 39.7125555 47.6872956 9.41190565 8.53039939 -12.9563986 -5.85055971 -2.21344525"></polygon>
                </g>
            </g>
            <g id="编组" transform="translate(17.246949, 20.796353)">
                <polygon id="路径" stroke="#FFD85A" points="20.2270861 7.10542736e-15 40.597598 11.5953067 40.7410239 35.0343408 20.5139378 46.8780683 0.14342587 35.2827617 -1.77635684e-15 11.8437275"></polygon>
                <polygon id="路径" stroke="url(#linearGradient-4)" points="20.2270861 7.10542736e-15 40.597598 11.5953067 40.7410239 35.0343408 20.5139378 46.8780683 0.14342587 35.2827617 -1.77635684e-15 11.8437275"></polygon>
            </g>
            <g id="编组" transform="translate(31.266506, 32.499432)" fill="#FFD85A" fill-rule="nonzero" font-family="BrutalType-Medium, Brutal Type" font-size="7.603" font-weight="400">
                <text id="ViP">
                    <tspan x="0" y="6">ViP</tspan>
                </text>
            </g>
            <path d="M27.0099347,36.8202535 L25.758974,37.4779225 L25.9978862,36.0849572 L24.9858377,35.0984537 L26.3844544,34.8952228 L27.0099347,33.6278611 L27.6354151,34.8952228 L29.0340318,35.0984537 L28.0219833,36.0849572 L28.2608955,37.4779225 L27.0099347,36.8202535 Z M48.596588,36.8202535 L47.3456272,37.4779225 L47.5845395,36.0849572 L46.5724909,35.0984537 L47.9711076,34.8952228 L48.596588,33.6278611 L49.2220684,34.8952228 L50.6206851,35.0984537 L49.6086365,36.0849572 L49.8475488,37.4779225 L48.596588,36.8202535 Z" id="形状" fill="#FFD85A" fill-rule="nonzero"></path>
        </g>
    </g>
</svg>